<?xml version="1.0" standalone="no"?>
<!DOCTYPE svg PUBLIC "-//W3C//DTD SVG 20010904//EN"
 "http://www.w3.org/TR/2001/REC-SVG-20010904/DTD/svg10.dtd">
<svg version="1.0" xmlns="http://www.w3.org/2000/svg"
 width="1280.000000pt" height="1280.000000pt" viewBox="0 0 1280.000000 1280.000000"
 preserveAspectRatio="xMidYMid meet">

<g transform="translate(0.000000,1280.000000) scale(0.100000,-0.100000)"
fill="#000000" stroke="none">
<path d="M6220 12234 c-1116 -52 -2124 -378 -3031 -979 -570 -379 -1046 -829
-1458 -1381 -41 -54 -86 -115 -101 -134 -41 -55 -151 -225 -220 -340 -464
-772 -734 -1592 -825 -2504 -22 -221 -30 -645 -16 -871 34 -547 148 -1120 317
-1600 245 -693 578 -1278 1062 -1864 124 -150 543 -570 697 -698 352 -292 678
-510 1075 -720 299 -159 686 -316 1010 -413 41 -12 86 -26 100 -31 57 -19 356
-90 505 -119 371 -71 711 -103 1105 -103 513 0 938 53 1440 179 1307 327 2453
1090 3272 2178 576 764 972 1717 1108 2666 41 290 52 427 57 752 6 357 -2 528
-43 848 -134 1073 -568 2096 -1248 2940 -631 784 -1442 1387 -2376 1767 -544
221 -1154 365 -1750 412 -139 11 -563 20 -680 15z m234 -3681 c4 -4 38 -8 74
-8 50 0 78 -6 112 -24 25 -13 62 -32 83 -43 21 -10 41 -26 44 -34 7 -18 66
-44 99 -44 18 0 29 10 44 40 12 23 27 43 35 46 22 9 55 -15 55 -39 0 -29 18
-47 47 -47 13 0 26 -7 30 -16 4 -10 13 -14 28 -10 14 4 28 0 35 -9 17 -21 57
-19 82 5 12 11 32 20 45 20 17 0 23 6 23 23 0 13 -5 28 -12 35 -9 9 -9 12 2
13 43 4 89 -25 90 -56 1 -26 66 -61 85 -45 10 8 22 7 44 -5 34 -17 39 -30 16
-39 -20 -7 -19 -33 1 -44 15 -8 15 -11 -5 -31 -25 -25 -46 -27 -55 -6 -8 21
-26 19 -26 -3 0 -11 10 -23 22 -29 13 -6 26 -25 32 -48 11 -36 16 -41 76 -63
36 -13 81 -24 100 -24 77 -1 80 0 80 30 0 15 5 33 12 40 18 18 63 14 89 -7 20
-16 21 -21 10 -34 -8 -11 -10 -21 -3 -33 6 -11 11 -13 16 -5 11 17 22 13 34
-14 6 -14 18 -25 25 -25 8 0 29 -7 47 -17 30 -15 32 -17 16 -29 -13 -9 -25
-10 -44 -3 -30 12 -47 -1 -57 -43 -7 -25 -5 -28 19 -28 22 0 31 -8 46 -43 10
-23 30 -53 45 -67 15 -14 23 -30 20 -41 -3 -9 0 -23 8 -30 50 -50 170 -236
236 -364 25 -48 74 -105 91 -105 19 1 75 49 83 73 10 27 40 17 52 -17 7 -22 6
-30 -6 -39 -9 -7 -14 -17 -12 -23 2 -6 -8 -27 -22 -48 -14 -20 -25 -39 -25
-41 0 -13 40 -3 63 15 15 12 28 16 32 11 3 -6 18 -8 33 -5 32 6 43 -4 60 -54
11 -31 10 -33 -26 -52 -20 -11 -54 -27 -75 -36 -28 -13 -36 -22 -31 -33 4 -9
7 -25 8 -36 1 -16 -5 -20 -27 -18 -25 2 -28 -1 -25 -25 2 -22 9 -28 40 -33 21
-3 41 -2 47 4 19 19 46 2 51 -33 5 -33 7 -35 38 -32 20 2 32 -1 32 -8 0 -8 9
-10 24 -6 39 10 43 -14 8 -45 -32 -28 -43 -71 -22 -84 23 -14 7 -46 -47 -95
l-58 -53 -2 -220 c-2 -181 -5 -223 -18 -237 -8 -9 -15 -25 -15 -36 0 -12 -13
-27 -35 -38 -41 -22 -42 -27 -15 -51 18 -17 19 -20 5 -41 -8 -13 -15 -39 -15
-57 0 -19 -6 -40 -14 -46 -7 -6 -16 -25 -20 -41 -5 -25 -10 -30 -36 -30 -18 0
-30 -5 -30 -13 0 -8 -9 -22 -20 -32 -28 -25 -24 -110 6 -123 16 -8 20 -18 19
-48 -4 -102 -29 -149 -66 -125 -18 10 -25 8 -55 -19 -19 -16 -39 -30 -44 -30
-6 0 -10 -12 -10 -26 0 -23 -3 -25 -24 -20 -14 3 -28 1 -31 -5 -4 -6 -17 -8
-30 -5 -26 7 -43 -20 -25 -38 16 -16 12 -41 -10 -67 -17 -21 -21 -22 -31 -9
-9 13 -10 12 -5 -3 4 -12 -3 -27 -20 -44 -17 -17 -24 -32 -20 -46 5 -22 -16
-70 -45 -103 -11 -11 -22 -31 -24 -44 -2 -13 -13 -33 -23 -44 -14 -15 -18 -31
-15 -58 6 -42 -8 -49 -43 -23 -36 27 -85 15 -51 -13 17 -14 10 -82 -10 -89 -8
-3 -25 -1 -38 5 -19 9 -32 7 -64 -9 -22 -10 -49 -19 -59 -19 -21 0 -58 -47
-54 -67 4 -16 -18 -27 -30 -15 -11 11 -48 4 -48 -9 0 -19 -122 -90 -170 -99
-59 -11 -75 -19 -75 -39 0 -8 -8 -19 -17 -24 -13 -9 -21 -7 -36 6 -26 24 -32
21 -32 -13 0 -32 -26 -43 -36 -15 -4 8 -10 15 -14 15 -9 0 -25 -58 -21 -77 3
-17 -19 -16 -44 3 -17 13 -18 17 -6 36 10 16 11 23 2 26 -18 6 -42 33 -36 42
3 4 -7 11 -22 15 -38 9 -67 -25 -51 -60 9 -20 8 -28 -5 -43 -10 -10 -17 -28
-17 -40 0 -11 -5 -24 -11 -27 -13 -9 -48 23 -60 53 -12 31 -53 49 -74 32 -18
-15 -11 -48 12 -67 13 -10 14 -15 3 -28 -13 -16 -51 -20 -64 -8 -14 14 -120
11 -140 -3 -27 -19 -56 -18 -56 1 0 9 -7 18 -15 21 -8 4 -15 12 -15 20 0 8 -9
14 -20 14 -22 0 -26 -10 -9 -27 20 -20 3 -44 -26 -37 -14 3 -31 1 -39 -6 -17
-13 -70 9 -79 35 -8 20 -26 19 -49 -2 -16 -14 -23 -15 -38 -5 -23 14 -60 16
-60 4 0 -5 -11 -14 -25 -20 -32 -15 -35 -15 -35 0 0 19 42 58 62 58 19 0 36
26 25 37 -4 3 -18 -2 -33 -11 -14 -10 -28 -15 -31 -12 -4 3 -12 1 -20 -5 -10
-9 -20 -7 -40 6 -27 18 -27 18 -48 -11 -24 -34 -86 -94 -97 -94 -4 0 -8 9 -8
21 0 13 -10 23 -30 30 -17 6 -30 18 -30 28 0 13 9 16 53 15 28 -1 60 -5 70 -9
11 -5 17 -3 17 7 0 28 -26 46 -80 57 -30 7 -70 21 -89 32 -51 30 -134 59 -211
73 -8 1 -31 12 -50 24 -19 13 -46 25 -60 28 -14 4 -38 18 -54 33 -27 25 -29
25 -40 7 -6 -11 -21 -30 -32 -42 -20 -21 -20 -24 -5 -39 15 -15 14 -18 -8 -36
-17 -14 -27 -17 -34 -10 -7 7 -16 6 -28 -5 -15 -14 -18 -13 -32 6 -16 24 -58
29 -119 17 -31 -7 -40 -4 -55 13 -10 11 -23 20 -30 20 -22 0 -23 17 -2 56 26
52 22 77 -15 79 -51 2 -75 65 -36 98 41 34 16 121 -35 124 -17 0 -36 2 -42 2
-7 1 -13 8 -13 16 0 21 -24 19 -45 -5 -10 -11 -24 -20 -31 -20 -28 0 -20 27
19 61 46 41 46 48 -12 118 -27 33 -30 34 -46 18 -9 -9 -22 -17 -29 -17 -7 0
-25 -9 -39 -20 -40 -32 -80 -22 -42 10 18 15 16 54 -2 56 -7 1 -17 2 -23 3 -5
0 -16 14 -25 31 -11 22 -24 31 -53 35 -20 3 -49 13 -64 21 -14 8 -33 14 -42
14 -22 0 -20 13 4 35 19 17 19 19 4 37 -21 23 -50 23 -63 1 -6 -10 -10 -13
-10 -8 -1 6 8 21 19 35 25 32 25 43 0 65 -24 22 -13 41 31 50 41 9 31 27 -22
40 -34 8 -47 18 -58 40 -8 17 -17 32 -20 35 -4 3 -7 35 -7 72 0 66 0 66 30 72
32 7 26 25 -10 30 -11 2 -23 15 -28 32 -5 16 -13 39 -19 51 -10 22 -3 43 14
43 6 0 20 -11 32 -24 l22 -23 1 35 c0 20 -3 41 -7 47 -5 5 -22 26 -39 46 -16
20 -30 45 -30 56 0 24 -62 93 -84 93 -9 0 -16 -8 -16 -20 0 -25 -12 -25 -41 0
-23 19 -23 20 -5 35 10 8 24 16 30 18 7 3 5 16 -8 40 -18 34 -18 36 0 61 11
14 27 26 37 26 21 0 59 20 70 37 4 7 15 9 23 6 12 -4 15 0 12 23 -4 37 -28 38
-46 2 -15 -31 -37 -37 -46 -12 -4 11 1 18 14 21 11 3 20 14 20 24 0 29 -39 24
-66 -8 -27 -32 -44 -23 -47 23 -2 28 0 29 36 27 40 -3 50 14 22 37 -8 7 -15
26 -15 42 0 26 3 29 28 26 24 -3 27 -7 28 -45 1 -46 26 -93 49 -93 24 0 17 30
-10 52 -20 16 -23 23 -14 34 6 8 18 14 26 14 12 0 14 9 9 43 -10 65 -7 105 9
137 8 16 15 40 15 54 0 15 8 30 20 36 19 10 19 12 4 36 -9 13 -15 26 -13 27 2
1 13 7 24 13 12 7 21 24 23 43 2 17 9 31 16 31 7 0 20 6 30 13 16 12 13 17
-39 56 -31 23 -60 53 -65 66 -5 14 -21 27 -35 31 -23 6 -26 10 -20 33 3 14 20
36 36 49 20 16 29 32 29 53 0 16 9 38 20 49 11 11 20 28 20 39 0 25 25 45 49
38 34 -9 47 8 33 45 -6 18 -9 42 -6 54 3 12 -1 26 -10 33 -9 8 -16 19 -16 25
0 15 58 66 75 66 7 0 29 12 50 26 27 18 45 24 63 19 19 -5 23 -3 19 9 -3 8 0
20 8 26 11 9 16 7 24 -9 7 -13 8 -22 1 -26 -15 -9 -12 -35 5 -35 8 0 19 9 25
19 13 26 13 31 -5 31 -24 0 -17 37 10 58 14 11 25 27 25 36 0 9 4 16 10 16 5
0 12 11 16 25 3 14 14 31 24 38 9 6 22 28 29 49 7 20 19 39 28 42 11 4 13 14
9 32 -8 29 9 55 29 47 8 -2 28 5 44 16 16 12 34 21 40 21 8 0 7 6 -1 20 -18
28 -2 36 33 16 30 -18 31 -18 47 5 9 13 18 35 19 48 3 41 11 51 43 51 24 0 32
6 44 34 8 18 19 37 25 41 7 4 10 14 7 23 -15 50 98 97 143 60 25 -19 56 -24
65 -9 3 5 -1 14 -9 21 -21 18 -11 78 17 107 32 31 103 37 103 9 0 -11 6 -21
13 -24 12 -4 17 20 13 71 -2 26 0 28 26 26 15 -1 39 1 52 5 28 10 41 -5 41
-49 0 -22 9 -38 37 -60 51 -42 74 -54 101 -55 27 0 28 11 2 28 -26 16 -25 30
2 34 12 2 28 13 34 25 6 13 14 20 18 16 4 -5 12 0 17 9 5 9 25 22 45 28 33 11
35 14 28 43 -3 18 -10 34 -15 35 -12 5 -12 52 0 52 15 0 61 -90 61 -119 0 -14
-1 -39 -2 -55 -3 -26 1 -30 47 -43 28 -8 55 -18 60 -23 11 -8 61 -6 94 5 16 5
20 12 15 30 -3 12 -1 26 5 30 7 4 9 20 6 38 -5 31 -3 33 53 59 31 14 65 29 75
32 9 3 17 14 17 25 0 19 6 21 66 30 6 0 14 -2 18 -6z m-309 -75 c28 -12 28
-26 2 -42 -12 -8 -21 -5 -36 8 -41 37 -20 59 34 34z m5 -87 c0 -5 -7 -11 -15
-15 -9 -3 -15 0 -15 9 0 8 7 15 15 15 8 0 15 -4 15 -9z m-778 -61 c3 -23 1
-30 -12 -30 -29 0 -42 22 -23 42 23 25 30 23 35 -12z m-702 -634 c0 -18 -17
-29 -30 -21 -8 5 -7 11 1 21 15 18 29 18 29 0z m-212 -148 c3 -22 -1 -28 -17
-28 -11 0 -23 -4 -26 -10 -13 -20 -25 -9 -25 23 0 41 7 49 40 45 19 -2 26 -10
28 -30z m22 -46 c0 -14 -46 -53 -53 -45 -4 3 3 17 15 30 22 23 38 30 38 15z
m4110 -221 c0 -6 -4 -13 -10 -16 -5 -3 -10 1 -10 9 0 9 5 16 10 16 6 0 10 -4
10 -9z m18 -277 c12 -4 22 -14 22 -24 0 -24 -34 -52 -54 -44 -9 3 -22 1 -30
-5 -10 -8 -17 -6 -31 9 -15 17 -16 22 -4 37 27 34 47 40 97 27z m-4381 -161
c21 -30 20 -53 -3 -53 -19 0 -48 46 -40 65 8 22 20 19 43 -12z m69 -870 c-7
-7 -26 7 -26 19 0 6 6 6 15 -2 9 -7 13 -15 11 -17z m-6 -88 c15 -19 6 -47 -14
-39 -17 6 -29 32 -20 45 8 13 20 11 34 -6z m3898 -633 c2 -7 -3 -12 -12 -12
-9 0 -16 7 -16 16 0 17 22 14 28 -4z m-30 -99 c-2 -10 -10 -18 -18 -18 -8 0
-16 8 -18 18 -2 12 3 17 18 17 15 0 20 -5 18 -17z m-2113 -872 c7 -12 -12 -24
-25 -16 -11 7 -4 25 10 25 5 0 11 -4 15 -9z"/>
<path d="M6447 8510 c-9 -13 -14 -26 -12 -29 9 -8 38 26 33 40 -3 8 -10 5 -21
-11z"/>
<path d="M5366 8165 c16 -22 33 -34 41 -30 8 3 17 5 21 5 3 0 -7 14 -23 30
-16 17 -37 30 -47 30 -17 0 -16 -4 8 -35z"/>
<path d="M5208 8102 l-26 -28 38 -37 c40 -37 90 -59 90 -38 0 6 -13 20 -29 32
-30 22 -44 50 -41 82 2 23 0 22 -32 -11z"/>
<path d="M5270 8086 c0 -14 24 -29 33 -19 3 3 3 11 0 19 -7 18 -33 18 -33 0z"/>
<path d="M6255 7468 c-94 -13 -276 -59 -321 -79 -22 -11 -45 -19 -50 -19 -6 0
-33 -16 -60 -35 -27 -19 -54 -35 -59 -35 -11 0 -148 -119 -194 -168 -56 -60
-136 -154 -141 -165 -3 -7 -20 -34 -39 -61 -18 -27 -38 -67 -43 -90 -4 -22
-13 -50 -18 -61 -51 -108 -73 -221 -71 -380 1 -138 4 -159 35 -240 8 -22 15
-63 16 -91 0 -31 5 -56 14 -63 7 -6 16 -28 20 -49 3 -25 17 -49 40 -71 23 -22
37 -47 41 -71 4 -21 15 -46 26 -56 10 -9 19 -25 19 -35 0 -10 9 -23 20 -29 11
-6 20 -17 20 -25 0 -7 9 -17 20 -20 11 -3 20 -12 20 -20 0 -8 9 -17 20 -20 11
-3 20 -13 20 -21 0 -8 4 -14 8 -14 5 0 28 -18 53 -40 24 -22 54 -43 67 -46 12
-3 22 -10 22 -16 0 -5 15 -16 33 -24 17 -8 43 -22 57 -29 14 -8 32 -15 41 -15
9 0 22 -7 29 -15 7 -8 22 -15 34 -15 12 0 38 -9 59 -20 20 -11 52 -20 69 -20
18 -1 51 -7 73 -15 47 -17 91 -19 100 -5 10 16 94 12 111 -5 21 -21 149 -20
188 0 16 9 46 20 65 24 115 29 159 45 183 68 19 18 42 27 85 32 75 9 115 36
265 182 106 104 121 123 166 215 28 55 64 124 82 154 25 42 33 71 41 139 5 47
14 109 19 136 11 60 14 183 7 281 -8 104 -53 242 -111 342 -63 107 -74 124
-103 155 -17 18 -39 48 -48 67 -20 41 -158 180 -178 180 -8 0 -34 15 -58 34
-24 18 -87 52 -139 74 -112 48 -126 52 -185 57 -25 3 -55 11 -68 19 -47 31
-182 42 -302 24z m375 -356 c0 -7 -38 -25 -80 -37 l-25 -7 24 26 c23 24 81 38
81 18z m-455 -51 c7 -12 -12 -24 -25 -16 -11 7 -4 25 10 25 5 0 11 -4 15 -9z
m325 -15 c0 -31 26 -37 75 -16 58 25 58 25 50 -1 -8 -23 23 -59 49 -59 8 0 18
-4 21 -10 9 -15 25 -12 25 5 0 24 28 17 32 -7 3 -20 9 -23 43 -23 29 0 40 -4
40 -15 0 -8 -10 -16 -22 -18 -13 -2 -23 -8 -23 -13 0 -14 -38 -11 -43 4 -4 9
-8 8 -16 -3 -7 -10 -6 -18 1 -28 8 -9 7 -19 -2 -37 -16 -30 -9 -39 33 -40 27
0 35 -6 52 -40 11 -22 30 -55 43 -73 16 -21 21 -39 17 -53 -4 -12 -1 -27 7
-37 15 -18 18 -69 4 -90 -4 -7 -5 -20 -2 -28 5 -12 9 -12 26 -2 17 11 27 9 68
-14 26 -15 49 -34 51 -44 2 -14 -3 -16 -33 -11 -20 3 -36 2 -36 -2 0 -4 16
-22 35 -41 19 -19 35 -40 35 -47 0 -18 -45 -17 -63 1 -20 20 -47 10 -80 -30
-27 -31 -28 -36 -15 -64 7 -17 21 -30 30 -30 24 0 23 -5 -17 -57 -19 -25 -35
-51 -35 -58 0 -7 19 -15 44 -17 45 -5 104 -42 105 -65 1 -6 -8 -15 -20 -18
-20 -7 -20 -8 7 -36 15 -16 34 -29 41 -29 7 0 13 -4 13 -9 0 -9 -45 -21 -94
-24 -31 -2 -50 -27 -21 -27 25 0 14 -33 -14 -40 -36 -8 -36 -27 0 -45 49 -26
24 -40 -53 -29 -56 8 -63 11 -63 32 0 13 -11 32 -25 43 l-25 20 23 16 c31 22
32 94 0 115 -22 15 -22 16 -4 34 12 11 14 20 7 22 -21 7 -37 -23 -36 -70 1
-48 0 -48 -33 -48 -40 0 -72 -15 -72 -35 0 -8 -3 -15 -7 -15 -14 0 -43 34 -43
51 0 10 -4 20 -9 23 -15 9 -21 -22 -10 -51 7 -18 6 -30 -1 -37 -16 -16 -12
-23 25 -46 19 -12 35 -28 35 -36 0 -22 -18 -17 -35 10 -19 29 -68 48 -102 40
-22 -6 -23 -4 -17 20 3 14 2 26 -2 26 -5 0 -19 3 -31 6 -19 5 -23 2 -23 -15 0
-14 -6 -21 -18 -21 -10 0 -37 -14 -60 -31 -45 -33 -68 -87 -56 -134 5 -22 3
-25 -19 -25 -14 0 -28 -4 -31 -9 -10 -16 -68 -22 -85 -9 -29 23 -60 38 -80 38
-32 0 -47 27 -33 63 7 20 8 35 2 41 -14 14 27 66 53 66 l22 1 -24 19 c-13 11
-34 20 -47 20 -19 0 -24 5 -24 25 0 24 -3 25 -33 20 -28 -6 -35 -2 -55 24 -12
17 -22 34 -22 40 0 5 -10 11 -23 15 -13 3 -36 17 -51 31 -33 30 -46 32 -46 5
0 -23 -28 -27 -36 -5 -4 8 1 26 9 38 10 16 13 34 8 58 -5 27 -12 35 -34 37
-18 2 -27 9 -27 21 0 10 -3 33 -6 50 -6 28 -4 31 19 31 29 0 43 16 39 43 -4
21 16 23 24 2 8 -21 24 -8 24 19 0 14 -10 28 -25 36 -30 16 -41 46 -25 65 6 8
11 24 9 37 -3 30 11 78 22 78 5 0 9 -13 9 -30 0 -32 9 -37 28 -18 16 16 15 45
-2 51 -8 3 -16 16 -18 29 -4 23 -9 25 -40 13 -25 -10 -23 16 2 43 29 30 68 29
80 -3 11 -28 18 -30 43 -11 18 14 23 36 8 36 -16 0 -19 54 -5 74 8 11 14 28
14 37 0 21 22 30 41 18 29 -18 38 -9 44 49 5 49 15 95 32 152 4 13 6 13 16 0
7 -8 32 -17 57 -19 25 -1 51 -8 57 -13 9 -7 15 -3 23 16 7 20 16 26 40 26 16
0 30 5 30 10 0 6 -9 10 -20 10 -11 0 -20 6 -20 13 0 23 11 27 34 12 30 -19 92
-29 100 -16 4 6 18 11 32 11 14 0 24 6 24 14 0 20 19 31 32 18 8 -8 7 -16 -2
-27 -11 -13 -9 -15 9 -15 12 0 24 7 26 15 3 8 7 22 10 30 6 19 35 20 35 1z
m-400 -43 c0 -5 -5 -15 -10 -23 -8 -12 -10 -11 -10 8 0 12 5 22 10 22 6 0 10
-3 10 -7z m-150 -162 c0 -6 -4 -13 -10 -16 -5 -3 -10 1 -10 9 0 9 5 16 10 16
6 0 10 -4 10 -9z m-149 -126 c-1 -15 -24 -12 -29 3 -3 9 2 13 12 10 10 -1 17
-7 17 -13z m-21 -39 c0 -8 -9 -24 -19 -37 -17 -21 -20 -22 -26 -7 -4 9 -2 26
5 37 12 24 40 28 40 7z m1214 -577 c-28 -31 -54 -43 -54 -25 0 9 12 22 28 30
38 21 48 19 26 -5z m46 -59 c0 -5 -7 -10 -15 -10 -8 0 -15 5 -15 10 0 6 7 10
15 10 8 0 15 -4 15 -10z"/>
<path d="M6862 6388 c-7 -7 -12 -20 -12 -30 0 -20 -26 -25 -33 -5 -2 6 -4 -2
-5 -19 0 -28 3 -32 29 -36 20 -3 34 1 47 15 9 11 12 17 5 14 -6 -4 -15 -2 -18
4 -4 6 2 13 14 16 24 6 25 8 11 34 -12 22 -21 24 -38 7z"/>
<path d="M6848 5973 c-26 -4 -41 -33 -18 -33 6 0 10 -10 10 -22 1 -21 2 -21
11 -5 5 9 16 17 23 17 8 0 17 7 20 16 6 17 0 35 -12 33 -4 -1 -19 -4 -34 -6z"/>
<path d="M6520 5950 c0 -5 5 -10 11 -10 5 0 7 5 4 10 -3 6 -8 10 -11 10 -2 0
-4 -4 -4 -10z"/>
<path d="M6615 5911 c-3 -5 -1 -12 5 -16 5 -3 10 1 10 9 0 18 -6 21 -15 7z"/>
<path d="M6070 5870 c0 -5 5 -10 11 -10 5 0 7 5 4 10 -3 6 -8 10 -11 10 -2 0
-4 -4 -4 -10z"/>
<path d="M6126 5813 c-10 -11 55 -65 71 -59 8 3 17 6 19 6 15 0 -2 21 -32 39
-38 23 -47 25 -58 14z"/>
<path d="M4610 7280 c0 -5 5 -10 11 -10 5 0 7 5 4 10 -3 6 -8 10 -11 10 -2 0
-4 -4 -4 -10z"/>
<path d="M4550 7266 c0 -8 5 -18 10 -21 6 -3 10 -14 10 -25 0 -20 19 -30 58
-30 26 0 25 1 -18 45 -47 47 -60 54 -60 31z"/>
<path d="M4466 7192 c-3 -5 1 -18 9 -28 14 -18 14 -18 15 3 0 23 -15 39 -24
25z"/>
<path d="M4296 6085 c25 -19 44 -19 44 0 0 10 -10 15 -32 15 -30 0 -31 -1 -12
-15z"/>
</g>
</svg>
